<?xml version="1.0" standalone="no"?><!DOCTYPE svg PUBLIC "-//W3C//DTD SVG 1.1//EN" "http://www.w3.org/Graphics/SVG/1.1/DTD/svg11.dtd"><svg t="1559622695591" class="icon" style="" viewBox="0 0 1024 1024" version="1.1" xmlns="http://www.w3.org/2000/svg" p-id="1311" xmlns:xlink="http://www.w3.org/1999/xlink" width="200" height="200"><defs><style type="text/css"></style></defs><path d="M832.485 294.739c0-52.199-42.467-94.669-94.668-94.669s-94.669 42.467-94.669 94.669c0 45.408 32.143 83.438 74.87 92.569-1.568 19.257-8.123 51.090-32.33 80.972-33.538 41.403-90.416 66.242-169.050 73.831-73.428 7.085-128.783 26.758-165.263 58.611v-315.837c39.885-11.142 69.237-47.782 69.237-91.171 0-52.199-42.467-94.669-94.669-94.669s-94.668 42.467-94.668 94.669c0 43.646 29.697 80.468 69.942 91.371v439.662c-40.245 10.902-69.942 47.725-69.942 91.371 0 52.199 42.467 94.668 94.668 94.668s94.669-42.467 94.669-94.668c0-43.391-29.353-80.028-69.237-91.17v-45.604c2.363-7.565 5.807-15.332 10.774-22.953 24.557-37.661 79.479-61.616 158.833-69.275 91.149-8.796 158.384-39.202 199.838-90.374 33.294-41.098 41.103-85.295 42.533-110.863 39.83-11.177 69.133-47.788 69.133-91.141zM276.487 193.713c0-27.269 22.185-49.455 49.454-49.455s49.455 22.185 49.455 49.455-22.185 49.455-49.455 49.455c-27.269-0.001-49.454-22.185-49.454-49.455zM375.392 816.117c0 27.269-22.185 49.454-49.455 49.454-27.267 0-49.454-22.183-49.454-49.454s22.185-49.454 49.454-49.454c27.27 0 49.455 22.183 49.455 49.454zM737.815 344.189c-27.269 0-49.455-22.185-49.455-49.454s22.185-49.455 49.455-49.455 49.454 22.185 49.454 49.455c0 27.269-22.183 49.454-49.454 49.454z" p-id="1312"></path></svg>